<svg width="23" height="14" viewBox="0 0 23 14" fill="none" xmlns="http://www.w3.org/2000/svg">
<g clip-path="url(#clip0_599_24506)">
<g clip-path="url(#clip1_599_24506)">
<mask id="mask0_599_24506" style="mask-type:luminance" maskUnits="userSpaceOnUse" x="0" y="0" width="23" height="14">
<path d="M22.9943 0.590088H0.0057373V14.0001H22.9943V0.590088Z" fill="white"/>
</mask>
<g mask="url(#mask0_599_24506)">
<path fill-rule="evenodd" clip-rule="evenodd" d="M20.468 9.79201C20.468 9.79201 22.3266 11.6255 22.7864 12.4739C22.7954 12.4862 22.8024 12.4997 22.807 12.5142C22.9944 12.8276 23.0404 13.0733 22.9484 13.2547C22.7933 13.5543 22.268 13.7047 22.0898 13.7173H18.8047C18.576 13.7173 18.1001 13.6577 17.5208 13.2581C17.0783 12.9492 16.6381 12.4407 16.2116 11.9436C15.5748 11.2053 15.0243 10.5646 14.4668 10.5646C14.3964 10.5645 14.3265 10.5761 14.2599 10.5991C13.8381 10.7323 13.3024 11.3327 13.3024 12.9321C13.3024 13.4326 12.907 13.7173 12.63 13.7173H11.1254C10.6128 13.7173 7.94381 13.5382 5.57712 11.0458C2.67711 7.9941 0.0725077 1.87251 0.0472203 1.81854C-0.114849 1.42245 0.225382 1.20661 0.5932 1.20661H3.91045C4.35528 1.20661 4.50011 1.47526 4.60126 1.71637C4.7185 1.99305 5.15298 3.09981 5.86563 4.34318C7.01967 6.36612 7.72886 7.18929 8.29553 7.18929C8.40199 7.18961 8.50665 7.16189 8.59898 7.10893C9.33921 6.70251 9.20128 4.06191 9.1668 3.51771C9.1668 3.41209 9.16565 2.33863 8.78634 1.81969C8.51507 1.44771 8.053 1.30305 7.77369 1.25024C7.8484 1.14232 8.00702 0.976993 8.21047 0.879406C8.71737 0.626827 9.63345 0.590088 10.5426 0.590088H11.0472C12.0335 0.603865 12.2886 0.66701 12.6472 0.757709C13.3691 0.929922 13.3829 1.39719 13.3197 2.98845C13.3013 3.44308 13.2817 3.95514 13.2817 4.55788C13.2817 4.68647 13.276 4.82998 13.276 4.97578C13.2541 5.79208 13.2254 6.7117 13.8024 7.08942C13.8773 7.13598 13.9637 7.16064 14.0518 7.16059C14.2519 7.16059 14.8507 7.16059 16.4748 4.37648C17.1875 3.14688 17.7392 1.69684 17.7771 1.58777C17.8093 1.52693 17.9059 1.35586 18.0231 1.28698C18.1066 1.24265 18.1999 1.22051 18.2944 1.22268H22.1967C22.622 1.22268 22.9105 1.28698 22.9668 1.44771C23.0611 1.70833 22.9484 2.50395 21.1668 4.91034C20.8668 5.31102 20.6036 5.65775 20.3726 5.96084C18.7576 8.07792 18.7576 8.18469 20.468 9.79201Z" fill="white"/>
</g>
</g>
</g>
<defs>
<clipPath id="clip0_599_24506">
<rect width="23" height="13.41" fill="white" transform="translate(0 0.590088)"/>
</clipPath>
<clipPath id="clip1_599_24506">
<rect width="22.9886" height="13.41" fill="white" transform="translate(0.0057373 0.590088)"/>
</clipPath>
</defs>
</svg>
