<svg width="16" height="16" viewBox="0 0 16 16" fill="none" xmlns="http://www.w3.org/2000/svg">
<g clip-path="url(#clip0_599_21474)">
<g clip-path="url(#clip1_599_21474)">
<path d="M15.3411 2.25H0.658867C0.294985 2.25 0 2.41789 0 2.625C0 2.83211 0.294985 3 0.658867 3H15.3411C15.705 3 16 2.83211 16 2.625C16 2.41789 15.705 2.25 15.3411 2.25Z" fill="#E5E5E5"/>
<path d="M15.3411 7.88281H0.658867C0.294985 7.88281 0 8.05071 0 8.25781C0 8.46492 0.294985 8.63281 0.658867 8.63281H15.3411C15.705 8.63281 16 8.46492 16 8.25781C16 8.05071 15.705 7.88281 15.3411 7.88281Z" fill="#E5E5E5"/>
<path d="M15.3411 13.5176H0.658867C0.294985 13.5176 0 13.6855 0 13.8926C0 14.0997 0.294985 14.2676 0.658867 14.2676H15.3411C15.705 14.2676 16 14.0997 16 13.8926C16 13.6855 15.705 13.5176 15.3411 13.5176Z" fill="#E5E5E5"/>
</g>
</g>
<defs>
<clipPath id="clip0_599_21474">
<rect width="16" height="16" fill="white"/>
</clipPath>
<clipPath id="clip1_599_21474">
<rect width="16" height="16" fill="white"/>
</clipPath>
</defs>
</svg>
