<svg width="22" height="22" viewBox="0 0 22 22" fill="none" xmlns="http://www.w3.org/2000/svg">
<g clip-path="url(#clip0_599_24529)">
<g clip-path="url(#clip1_599_24529)">
<path d="M17.6625 4.88596C16.4434 4.31762 15.1234 3.90512 13.7484 3.66679C13.7363 3.66641 13.7242 3.66866 13.7132 3.67342C13.7021 3.67817 13.6922 3.68529 13.6842 3.69429C13.5192 3.99679 13.3267 4.39096 13.1984 4.69346C11.7399 4.47346 10.2568 4.47346 8.79832 4.69346C8.66998 4.38179 8.47748 3.99679 8.30332 3.69429C8.29415 3.67596 8.26665 3.66679 8.23915 3.66679C6.86415 3.90512 5.55332 4.31762 4.32498 4.88596C4.31582 4.88596 4.30665 4.89512 4.29748 4.90429C1.80415 8.63512 1.11665 12.2651 1.45582 15.8584C1.45582 15.8767 1.46498 15.8951 1.48332 15.9042C3.13332 17.1142 4.71915 17.8476 6.28665 18.3334C6.31415 18.3426 6.34165 18.3334 6.35082 18.3151C6.71748 17.8109 7.04748 17.2792 7.33165 16.7201C7.34998 16.6834 7.33165 16.6467 7.29498 16.6376C6.77248 16.4359 6.27748 16.1976 5.79165 15.9226C5.75498 15.9042 5.75498 15.8492 5.78248 15.8217C5.88332 15.7484 5.98415 15.6659 6.08498 15.5926C6.10332 15.5742 6.13082 15.5742 6.14915 15.5834C9.30252 17.0226 12.7034 17.0226 15.82 15.5834C15.8384 15.5742 15.8659 15.5742 15.8842 15.5926C15.985 15.6751 16.0859 15.7484 16.1867 15.8309C16.2234 15.8584 16.2234 15.9134 16.1775 15.9317C15.7009 16.2159 15.1967 16.4451 14.6742 16.6467C14.6375 16.6559 14.6284 16.7017 14.6375 16.7292C14.9309 17.2884 15.2609 17.8201 15.6184 18.3242C15.6459 18.3334 15.6734 18.3426 15.7009 18.3334C17.2775 17.8476 18.8634 17.1142 20.5134 15.9042C20.5317 15.8951 20.5409 15.8767 20.5409 15.8584C20.9442 11.7059 19.8717 8.10346 17.6992 4.90429C17.69 4.89512 17.6809 4.88596 17.6625 4.88596ZM7.80832 13.6676C6.86415 13.6676 6.07582 12.7967 6.07582 11.7242C6.07582 10.6517 6.84582 9.78091 7.80832 9.78091C8.77998 9.78091 9.55002 10.6609 9.54085 11.7242C9.54085 12.7967 8.77082 13.6676 7.80832 13.6676ZM14.1975 13.6676C13.2534 13.6676 12.465 12.7967 12.465 11.7242C12.465 10.6517 13.235 9.78091 14.1975 9.78091C15.1692 9.78091 15.9392 10.6609 15.93 11.7242C15.93 12.7967 15.1692 13.6676 14.1975 13.6676Z" fill="white"/>
</g>
</g>
<defs>
<clipPath id="clip0_599_24529">
<rect width="22" height="22" fill="white"/>
</clipPath>
<clipPath id="clip1_599_24529">
<rect width="22" height="22" fill="white"/>
</clipPath>
</defs>
</svg>
