<svg width="20" height="17" viewBox="0 0 20 17" fill="none" xmlns="http://www.w3.org/2000/svg">
<g clip-path="url(#clip0_599_24521)">
<g clip-path="url(#clip1_599_24521)">
<g clip-path="url(#clip2_599_24521)">
<mask id="mask0_599_24521" style="mask-type:luminance" maskUnits="userSpaceOnUse" x="0" y="0" width="20" height="17">
<path d="M20 0H0V17H20V0Z" fill="white"/>
</mask>
<g mask="url(#mask0_599_24521)">
<path d="M1.3749 7.28535C6.74359 4.89713 10.3236 3.32266 12.1148 2.56196C17.2292 0.390004 18.2919 0.012712 18.9846 0.000120781C19.1369 -0.00248647 19.4776 0.0360627 19.6982 0.218867C19.8845 0.373223 19.9358 0.581737 19.9603 0.728083C19.9848 0.87443 20.0154 1.20781 19.9911 1.46831C19.714 4.44155 18.5147 11.6568 17.9046 14.9869C17.6465 16.396 17.1382 16.8685 16.6461 16.9147C15.5766 17.0152 14.7645 16.1931 13.7287 15.4998C12.1078 14.415 11.1921 13.7397 9.61879 12.6811C7.80053 11.4577 8.97923 10.7853 10.0154 9.68639C10.2866 9.39881 14.9987 5.02272 15.0899 4.62574C15.1013 4.57609 15.1119 4.39103 15.0042 4.2933C14.8965 4.19558 14.7376 4.229 14.6229 4.25558C14.4604 4.29325 11.871 6.04069 6.85486 9.4979C6.11988 10.0132 5.45416 10.2643 4.8577 10.2511C4.20015 10.2366 2.93528 9.87151 1.99498 9.55943C0.84166 9.17665 -0.0749729 8.97427 0.00484518 8.3242C0.0464194 7.9856 0.503103 7.63931 1.3749 7.28535Z" fill="white"/>
</g>
</g>
</g>
</g>
<defs>
<clipPath id="clip0_599_24521">
<rect width="20" height="17" fill="white"/>
</clipPath>
<clipPath id="clip1_599_24521">
<rect width="20" height="17" fill="white"/>
</clipPath>
<clipPath id="clip2_599_24521">
<rect width="20" height="17" fill="white"/>
</clipPath>
</defs>
</svg>
